<mxfile host="app.diagrams.net" agent="Mozilla/5.0 (Macintosh; Intel Mac OS X 10_15_7) AppleWebKit/537.36 (KHTML, like Gecko) Chrome/138.0.0.0 Safari/537.36" version="27.2.0">
  <diagram name="Page-1" id="ePFdDNCWn1Ac8h-3UZrI">
    <mxGraphModel dx="1634" dy="790" grid="0" gridSize="10" guides="1" tooltips="1" connect="1" arrows="1" fold="1" page="0" pageScale="1" pageWidth="850" pageHeight="1100" math="0" shadow="0">
      <root>
        <mxCell id="0" />
        <mxCell id="1" parent="0" />
        <mxCell id="Byn8paCOmEpdgrcqFU-G-48" value="" style="rounded=1;whiteSpace=wrap;html=1;fillColor=#f5f5f5;fontColor=#333333;strokeColor=#666666;strokeWidth=2;dashed=1;" vertex="1" parent="1">
          <mxGeometry x="-85" y="168" width="384" height="606" as="geometry" />
        </mxCell>
        <mxCell id="Byn8paCOmEpdgrcqFU-G-36" value="" style="rounded=1;whiteSpace=wrap;html=1;fillColor=#e1d5e7;strokeColor=#9673a6;fillStyle=hatch;strokeWidth=2;" vertex="1" parent="1">
          <mxGeometry x="126" y="562.5" width="154" height="60" as="geometry" />
        </mxCell>
        <mxCell id="Byn8paCOmEpdgrcqFU-G-35" value="" style="rounded=1;whiteSpace=wrap;html=1;fillColor=#d5e8d4;strokeColor=#82b366;fillStyle=hatch;strokeWidth=2;" vertex="1" parent="1">
          <mxGeometry x="-70" y="565.5" width="148" height="60" as="geometry" />
        </mxCell>
        <mxCell id="Byn8paCOmEpdgrcqFU-G-41" style="edgeStyle=orthogonalEdgeStyle;rounded=0;orthogonalLoop=1;jettySize=auto;html=1;exitX=0;exitY=0.5;exitDx=0;exitDy=0;entryX=0.5;entryY=0;entryDx=0;entryDy=0;strokeWidth=2;strokeColor=#999999;" edge="1" parent="1" source="Byn8paCOmEpdgrcqFU-G-34" target="Byn8paCOmEpdgrcqFU-G-35">
          <mxGeometry relative="1" as="geometry" />
        </mxCell>
        <mxCell id="Byn8paCOmEpdgrcqFU-G-46" value="&lt;font style=&quot;font-size: 16px;&quot;&gt;是&lt;/font&gt;" style="edgeLabel;html=1;align=center;verticalAlign=middle;resizable=0;points=[];" vertex="1" connectable="0" parent="Byn8paCOmEpdgrcqFU-G-41">
          <mxGeometry x="0.2069" y="-2" relative="1" as="geometry">
            <mxPoint y="13" as="offset" />
          </mxGeometry>
        </mxCell>
        <mxCell id="Byn8paCOmEpdgrcqFU-G-42" style="edgeStyle=orthogonalEdgeStyle;rounded=0;orthogonalLoop=1;jettySize=auto;html=1;exitX=1;exitY=0.5;exitDx=0;exitDy=0;entryX=0.5;entryY=0;entryDx=0;entryDy=0;strokeWidth=2;strokeColor=#999999;" edge="1" parent="1" source="Byn8paCOmEpdgrcqFU-G-34" target="Byn8paCOmEpdgrcqFU-G-36">
          <mxGeometry relative="1" as="geometry" />
        </mxCell>
        <mxCell id="Byn8paCOmEpdgrcqFU-G-47" value="&lt;font style=&quot;font-size: 16px;&quot;&gt;否&lt;/font&gt;" style="edgeLabel;html=1;align=center;verticalAlign=middle;resizable=0;points=[];" vertex="1" connectable="0" parent="Byn8paCOmEpdgrcqFU-G-42">
          <mxGeometry x="0.3597" y="-1" relative="1" as="geometry">
            <mxPoint y="1" as="offset" />
          </mxGeometry>
        </mxCell>
        <mxCell id="Byn8paCOmEpdgrcqFU-G-34" value="" style="rhombus;whiteSpace=wrap;html=1;fillColor=#dae8fc;strokeColor=#6c8ebf;strokeWidth=2;" vertex="1" parent="1">
          <mxGeometry x="65" y="441.5" width="80" height="80" as="geometry" />
        </mxCell>
        <mxCell id="Byn8paCOmEpdgrcqFU-G-24" value="" style="rounded=1;whiteSpace=wrap;html=1;fillColor=#f5f5f5;fontColor=#333333;strokeColor=#666666;strokeWidth=2;dashed=1;" vertex="1" parent="1">
          <mxGeometry x="400" y="238" width="417" height="466" as="geometry" />
        </mxCell>
        <mxCell id="Byn8paCOmEpdgrcqFU-G-11" value="" style="rounded=0;whiteSpace=wrap;html=1;fillColor=#e1d5e7;strokeColor=#9673a6;strokeWidth=2;" vertex="1" parent="1">
          <mxGeometry x="674" y="444" width="120" height="60" as="geometry" />
        </mxCell>
        <mxCell id="Byn8paCOmEpdgrcqFU-G-23" style="edgeStyle=orthogonalEdgeStyle;rounded=0;orthogonalLoop=1;jettySize=auto;html=1;exitX=1;exitY=0.5;exitDx=0;exitDy=0;entryX=0;entryY=0.5;entryDx=0;entryDy=0;startArrow=none;startFill=0;dashed=1;strokeColor=#999999;strokeWidth=2;" edge="1" parent="1" source="Byn8paCOmEpdgrcqFU-G-10" target="Byn8paCOmEpdgrcqFU-G-11">
          <mxGeometry relative="1" as="geometry" />
        </mxCell>
        <mxCell id="Byn8paCOmEpdgrcqFU-G-10" value="" style="rounded=0;whiteSpace=wrap;html=1;fillColor=#d5e8d4;strokeColor=#82b366;strokeWidth=2;" vertex="1" parent="1">
          <mxGeometry x="483" y="444" width="120" height="60" as="geometry" />
        </mxCell>
        <mxCell id="Byn8paCOmEpdgrcqFU-G-22" style="edgeStyle=orthogonalEdgeStyle;rounded=0;orthogonalLoop=1;jettySize=auto;html=1;exitX=0.5;exitY=1;exitDx=0;exitDy=0;entryX=0.5;entryY=0;entryDx=0;entryDy=0;startArrow=classic;startFill=1;dashed=1;strokeColor=#999999;strokeWidth=2;" edge="1" parent="1" source="Byn8paCOmEpdgrcqFU-G-1" target="Byn8paCOmEpdgrcqFU-G-10">
          <mxGeometry relative="1" as="geometry" />
        </mxCell>
        <mxCell id="Byn8paCOmEpdgrcqFU-G-1" value="" style="rounded=1;whiteSpace=wrap;html=1;fillColor=#f8cecc;strokeColor=#b85450;strokeWidth=2;" vertex="1" parent="1">
          <mxGeometry x="483" y="312" width="120" height="60" as="geometry" />
        </mxCell>
        <mxCell id="Byn8paCOmEpdgrcqFU-G-2" value="&lt;font style=&quot;font-size: 16px;&quot;&gt;用户&lt;/font&gt;" style="text;html=1;align=center;verticalAlign=middle;whiteSpace=wrap;rounded=0;" vertex="1" parent="1">
          <mxGeometry x="513" y="327" width="60" height="30" as="geometry" />
        </mxCell>
        <mxCell id="Byn8paCOmEpdgrcqFU-G-4" value="&lt;span style=&quot;font-size: 16px;&quot;&gt;LLM调用&lt;/span&gt;" style="text;html=1;align=center;verticalAlign=middle;whiteSpace=wrap;rounded=0;" vertex="1" parent="1">
          <mxGeometry x="509" y="461" width="68" height="30" as="geometry" />
        </mxCell>
        <mxCell id="Byn8paCOmEpdgrcqFU-G-5" value="" style="rounded=1;whiteSpace=wrap;html=1;fillColor=#f8cecc;strokeColor=#b85450;strokeWidth=2;" vertex="1" parent="1">
          <mxGeometry x="483" y="622" width="120" height="60" as="geometry" />
        </mxCell>
        <mxCell id="Byn8paCOmEpdgrcqFU-G-6" value="&lt;span style=&quot;font-size: 16px;&quot;&gt;环境&lt;/span&gt;" style="text;html=1;align=center;verticalAlign=middle;whiteSpace=wrap;rounded=0;" vertex="1" parent="1">
          <mxGeometry x="513" y="637" width="60" height="30" as="geometry" />
        </mxCell>
        <mxCell id="Byn8paCOmEpdgrcqFU-G-7" value="&lt;span style=&quot;font-size: 16px;&quot;&gt;停止&lt;/span&gt;" style="text;html=1;align=center;verticalAlign=middle;whiteSpace=wrap;rounded=0;" vertex="1" parent="1">
          <mxGeometry x="704" y="461" width="60" height="30" as="geometry" />
        </mxCell>
        <mxCell id="Byn8paCOmEpdgrcqFU-G-8" value="&lt;span style=&quot;font-size: 16px;&quot;&gt;行动&lt;/span&gt;" style="text;html=1;align=center;verticalAlign=middle;whiteSpace=wrap;rounded=0;" vertex="1" parent="1">
          <mxGeometry x="623" y="555" width="60" height="30" as="geometry" />
        </mxCell>
        <mxCell id="Byn8paCOmEpdgrcqFU-G-9" value="&lt;span style=&quot;font-size: 16px;&quot;&gt;反馈&lt;/span&gt;" style="text;html=1;align=center;verticalAlign=middle;whiteSpace=wrap;rounded=0;" vertex="1" parent="1">
          <mxGeometry x="405" y="558" width="60" height="30" as="geometry" />
        </mxCell>
        <mxCell id="Byn8paCOmEpdgrcqFU-G-21" value="" style="curved=1;endArrow=none;html=1;rounded=0;strokeWidth=2;startArrow=classic;startFill=1;endFill=0;strokeColor=#999999;" edge="1" parent="1">
          <mxGeometry width="50" height="50" relative="1" as="geometry">
            <mxPoint x="483" y="522" as="sourcePoint" />
            <mxPoint x="483" y="617" as="targetPoint" />
            <Array as="points">
              <mxPoint x="454" y="577" />
            </Array>
          </mxGeometry>
        </mxCell>
        <mxCell id="Byn8paCOmEpdgrcqFU-G-20" value="" style="curved=1;endArrow=classic;html=1;rounded=0;strokeWidth=2;strokeColor=#999999;" edge="1" parent="1">
          <mxGeometry width="50" height="50" relative="1" as="geometry">
            <mxPoint x="608" y="519" as="sourcePoint" />
            <mxPoint x="603" y="618" as="targetPoint" />
            <Array as="points">
              <mxPoint x="634" y="572" />
            </Array>
          </mxGeometry>
        </mxCell>
        <mxCell id="Byn8paCOmEpdgrcqFU-G-25" value="&lt;font style=&quot;font-size: 30px;&quot;&gt;&lt;b&gt;Agents&lt;/b&gt;&lt;/font&gt;" style="text;html=1;align=center;verticalAlign=middle;whiteSpace=wrap;rounded=0;" vertex="1" parent="1">
          <mxGeometry x="552" y="250" width="122" height="42" as="geometry" />
        </mxCell>
        <mxCell id="Byn8paCOmEpdgrcqFU-G-39" style="edgeStyle=orthogonalEdgeStyle;rounded=0;orthogonalLoop=1;jettySize=auto;html=1;exitX=0.5;exitY=1;exitDx=0;exitDy=0;entryX=0.5;entryY=0;entryDx=0;entryDy=0;strokeWidth=2;strokeColor=#999999;" edge="1" parent="1" source="Byn8paCOmEpdgrcqFU-G-26" target="Byn8paCOmEpdgrcqFU-G-29">
          <mxGeometry relative="1" as="geometry" />
        </mxCell>
        <mxCell id="Byn8paCOmEpdgrcqFU-G-26" value="" style="rounded=1;whiteSpace=wrap;html=1;strokeWidth=2;fillColor=#fff2cc;strokeColor=#d6b656;" vertex="1" parent="1">
          <mxGeometry x="45" y="229.5" width="120" height="60" as="geometry" />
        </mxCell>
        <mxCell id="Byn8paCOmEpdgrcqFU-G-27" value="&lt;font style=&quot;font-size: 16px;&quot;&gt;开始&lt;/font&gt;" style="text;html=1;align=center;verticalAlign=middle;whiteSpace=wrap;rounded=0;" vertex="1" parent="1">
          <mxGeometry x="75" y="244.5" width="60" height="30" as="geometry" />
        </mxCell>
        <mxCell id="Byn8paCOmEpdgrcqFU-G-40" style="edgeStyle=orthogonalEdgeStyle;rounded=0;orthogonalLoop=1;jettySize=auto;html=1;exitX=0.5;exitY=1;exitDx=0;exitDy=0;entryX=0.5;entryY=0;entryDx=0;entryDy=0;strokeWidth=2;strokeColor=#999999;" edge="1" parent="1" source="Byn8paCOmEpdgrcqFU-G-29" target="Byn8paCOmEpdgrcqFU-G-34">
          <mxGeometry relative="1" as="geometry" />
        </mxCell>
        <mxCell id="Byn8paCOmEpdgrcqFU-G-29" value="" style="rounded=1;whiteSpace=wrap;html=1;fillColor=#f8cecc;strokeColor=#b85450;strokeWidth=2;" vertex="1" parent="1">
          <mxGeometry x="-9" y="336.5" width="228" height="60" as="geometry" />
        </mxCell>
        <mxCell id="Byn8paCOmEpdgrcqFU-G-30" value="&lt;font style=&quot;font-size: 16px;&quot;&gt;任务A：LLM处理&lt;/font&gt;" style="text;html=1;align=center;verticalAlign=middle;whiteSpace=wrap;rounded=0;" vertex="1" parent="1">
          <mxGeometry x="42" y="351.5" width="126" height="30" as="geometry" />
        </mxCell>
        <mxCell id="Byn8paCOmEpdgrcqFU-G-31" value="&lt;span style=&quot;font-size: 16px;&quot;&gt;决策&lt;/span&gt;" style="text;html=1;align=center;verticalAlign=middle;whiteSpace=wrap;rounded=0;" vertex="1" parent="1">
          <mxGeometry x="81" y="466.5" width="48" height="30" as="geometry" />
        </mxCell>
        <mxCell id="Byn8paCOmEpdgrcqFU-G-32" value="&lt;span style=&quot;font-size: 16px;&quot;&gt;任务B：LLM生成&lt;/span&gt;" style="text;html=1;align=center;verticalAlign=middle;whiteSpace=wrap;rounded=0;" vertex="1" parent="1">
          <mxGeometry x="-63" y="580.5" width="134" height="30" as="geometry" />
        </mxCell>
        <mxCell id="Byn8paCOmEpdgrcqFU-G-33" value="&lt;span style=&quot;font-size: 16px;&quot;&gt;任务C：常规处理&lt;/span&gt;" style="text;html=1;align=center;verticalAlign=middle;whiteSpace=wrap;rounded=0;" vertex="1" parent="1">
          <mxGeometry x="136" y="579.5" width="134" height="30" as="geometry" />
        </mxCell>
        <mxCell id="Byn8paCOmEpdgrcqFU-G-43" style="edgeStyle=orthogonalEdgeStyle;rounded=0;orthogonalLoop=1;jettySize=auto;html=1;exitX=0.5;exitY=1;exitDx=0;exitDy=0;entryX=0.5;entryY=0;entryDx=0;entryDy=0;strokeWidth=2;strokeColor=#999999;" edge="1" parent="1" source="Byn8paCOmEpdgrcqFU-G-35" target="Byn8paCOmEpdgrcqFU-G-37">
          <mxGeometry relative="1" as="geometry">
            <Array as="points">
              <mxPoint x="4" y="663.5" />
              <mxPoint x="97" y="663.5" />
            </Array>
          </mxGeometry>
        </mxCell>
        <mxCell id="Byn8paCOmEpdgrcqFU-G-45" style="edgeStyle=orthogonalEdgeStyle;rounded=0;orthogonalLoop=1;jettySize=auto;html=1;exitX=0.5;exitY=1;exitDx=0;exitDy=0;entryX=0.5;entryY=0;entryDx=0;entryDy=0;strokeWidth=2;strokeColor=#999999;" edge="1" parent="1" source="Byn8paCOmEpdgrcqFU-G-36" target="Byn8paCOmEpdgrcqFU-G-37">
          <mxGeometry relative="1" as="geometry">
            <Array as="points">
              <mxPoint x="203" y="663.5" />
              <mxPoint x="97" y="663.5" />
            </Array>
          </mxGeometry>
        </mxCell>
        <mxCell id="Byn8paCOmEpdgrcqFU-G-37" value="" style="rounded=1;whiteSpace=wrap;html=1;fillColor=#ffe6cc;strokeColor=#d79b00;strokeWidth=2;" vertex="1" parent="1">
          <mxGeometry x="37" y="688.5" width="120" height="60" as="geometry" />
        </mxCell>
        <mxCell id="Byn8paCOmEpdgrcqFU-G-38" value="&lt;span style=&quot;font-size: 16px;&quot;&gt;结束&lt;/span&gt;" style="text;html=1;align=center;verticalAlign=middle;whiteSpace=wrap;rounded=0;" vertex="1" parent="1">
          <mxGeometry x="73" y="703.5" width="48" height="30" as="geometry" />
        </mxCell>
        <mxCell id="Byn8paCOmEpdgrcqFU-G-49" value="&lt;span style=&quot;font-size: 30px;&quot;&gt;&lt;b&gt;Workflows&lt;/b&gt;&lt;/span&gt;" style="text;html=1;align=center;verticalAlign=middle;whiteSpace=wrap;rounded=0;" vertex="1" parent="1">
          <mxGeometry x="20" y="179" width="174" height="42" as="geometry" />
        </mxCell>
      </root>
    </mxGraphModel>
  </diagram>
</mxfile>
